<?xml version="1.0" standalone="no"?><!DOCTYPE svg PUBLIC "-//W3C//DTD SVG 1.1//EN" "http://www.w3.org/Graphics/SVG/1.1/DTD/svg11.dtd"><svg xmlns:xlink="http://www.w3.org/1999/xlink" xmlns="http://www.w3.org/2000/svg" version="1.1" width="30" height="30" viewBox="0 0 30 30"><defs><style type="text/css"><![CDATA[
@font-face {
  font-family: "ifont";
  src: url("//at.alicdn.com/t/font_1442373896_4754455.eot?#iefix") format("embedded-opentype"), url("//at.alicdn.com/t/font_1442373896_4754455.woff") format("woff"), url("//at.alicdn.com/t/font_1442373896_4754455.ttf") format("truetype"), url("//at.alicdn.com/t/font_1442373896_4754455.svg#ifont") format("svg");
}

]]></style></defs><g class="transform-group"><g transform="scale(0.029296875, 0.029296875)"><path d="M513.881633 655.266831c0 12.861272-13.016959 23.280191-29.099022 23.280191l0 0c-16.083279 0-29.099022-10.417703-29.099022-23.280191L455.683588 241.227296c0-12.861272 13.016959-23.280191 29.099022-23.280191l0 0c16.082063 0 29.099022 10.418919 29.099022 23.280191L513.881633 655.266831zM505.073109 610.398337c13.964466 13.977845 13.964466 36.581767 0 50.559612l0 0c-13.964466 13.952303-36.59393 13.952303-50.559612 0L302.833444 509.277896c-13.964466-13.952303-13.964466-36.581767 0-50.559612l0 0c13.964466-13.952303 36.595147-13.952303 50.559612 0L505.073109 610.398337zM617.832429 458.718284c13.964466-13.964466 36.581767-13.964466 50.559612 0l0 0c13.953519 13.964466 13.953519 36.595147 0 50.559612L516.714421 660.932407c-13.965682 13.977845-36.595147 13.977845-50.560829 0l0 0c-13.964466-13.925544-13.964466-36.568388 0-50.53407L617.832429 458.718284zM778.269921 761.689171c0 19.278528-15.628379 34.91907-34.91907 34.91907L257.808046 796.608241c-19.290691 0-34.91907-15.640542-34.91907-34.91907l0 0c0-19.279744 15.628379-34.91907 34.91907-34.91907l485.542805 0C762.641542 726.770101 778.269921 742.409426 778.269921 761.689171L778.269921 761.689171z" fill="#2795af"></path></g></g></svg>