<?xml version="1.0" standalone="no"?><!DOCTYPE svg PUBLIC "-//W3C//DTD SVG 1.1//EN" "http://www.w3.org/Graphics/SVG/1.1/DTD/svg11.dtd"><svg xmlns:xlink="http://www.w3.org/1999/xlink" xmlns="http://www.w3.org/2000/svg" version="1.1" width="30" height="30" viewBox="0 0 30 30"><defs><style type="text/css"><![CDATA[
@font-face {
  font-family: "ifont";
  src: url("//at.alicdn.com/t/font_1442373896_4754455.eot?#iefix") format("embedded-opentype"), url("//at.alicdn.com/t/font_1442373896_4754455.woff") format("woff"), url("//at.alicdn.com/t/font_1442373896_4754455.ttf") format("truetype"), url("//at.alicdn.com/t/font_1442373896_4754455.svg#ifont") format("svg");
}

]]></style></defs><g class="transform-group"><g transform="scale(0.029296875, 0.029296875)"><path d="M916.91008 236.22528c-116.99456-99.17952-286.21056-59.2704-368.27776 34.40384-60.80256-81.21728-185.11488-168.43136-347.26656-103.90528-210.48064 83.74656-265.43744 391.8528 5.0176 583.904 86.33856 61.29536 191.0272 99.136 251.97696 114.70208 37.01888 9.48352 69.184 16.26496 69.184 16.26496s2.14784-9.29536 14.54336-10.69312c12.3904-1.40672 10.39616-15.6928 26.29632-18.58304 15.90656-2.87104 18.35136-12.99328 18.35136-12.99328S407.73888 810.3296 265.0816 697.6896C92.59392 561.53472 125.29408 407.7824 196.00512 325.24672c78.2848-91.44192 193.472-96.60544 272.09088-51.00416 72.96896 42.38976 111.10784 102.98624 105.17632 160.81408-5.632 54.78784-35.39456 34.90816-44.36736 8.7168-12.608-36.9536 4.08192-65.5232 9.2032-78.57664-9.79968-13.69216-19.11168-25.36448-30.8864-34.25152-10.63424 20.32256-23.58272 48.448-17.58464 84.5504 9.37216 56.34304 75.7952 92.80256 95.67488 38.41792 9.75744-26.7456 15.77216-80.128-6.95296-133.28512 38.4192-36.63104 88.46208-68.75264 172.80384-51.97696 79.2384 15.712 153.3312 101.53856 119.05664 205.67424-43.00416 130.688-187.94496 133.43104-187.94496 133.43104s0.70656 32.10368-13.64864 47.77216c-23.5776 25.72416-4.20864 42.7136-14.98752 56.192-10.67008 13.45536-2.76224 50.89408-2.76224 50.89408s80.768-8.80256 206.84288-87.7184c72.09856-45.11616 132.30464-119.69536 141.7024-218.0288C1007.54176 372.22912 985.62688 294.47936 916.91008 236.22528L916.91008 236.22528zM916.91008 236.22528" fill="#999"></path></g></g></svg>